# xmcd
# 
# Track frame offsets:
#     150
#     17975
#     34587
#     53487
#     78050
#     101637
#     121462
#     138800
#     169247
#     180717
#     203530
# 
# Disc length: 3105
# 
# Revision: 15
# Processed by: cddbd v1.5.2PL0 Copyright (c) Steve Scherf et al.
# Submitted via: fre:ac v1.0.31
# 
DISCID=830c1f0b
DTITLE=Janis Joplin - Box Of Pearls The Janis Joplin Collection (3 Of 5)
DYEAR=1969
DGENRE=Rock/Pop
TTITLE0=Try [Just A Little Bit Harder]
TTITLE1=Maybe
TTITLE2=One Good Man
TTITLE3=As Good As You've Been To This World
TTITLE4=To Love Somebody
TTITLE5=Kozmic Blues
TTITLE6=Little Girl Blue
TTITLE7=Work Me, Lord
TTITLE8=Dear Landlord [Session Outtake]
TTITLE9=Summertime [Live At Woodstock]
TTITLE10=Piece Of My Heart [Live At Woodstock]
EXTD=
EXTT0=
EXTT1=
EXTT2=
EXTT3=
EXTT4=
EXTT5=
EXTT6=
EXTT7=
EXTT8=
EXTT9=
EXTT10=
PLAYORDER=
